# xmcd CD database file
#
# Track frame offsets:
#	150
#	12572
#	24539
#	38148
#	50248
#	64360
#	77209
#	89624
#	104021
#	118191
#	130360
#	144972
#	158929
#	170556
#	181501
#	195135
#	208502
#	223407
#	238407
#	250899
#
# Disc length: 3539 seconds
#
# Revision: 5
# Processed by: cddbd v1.5.2PL0 Copyright (c) Steve Scherf et al.
# Submitted via: CDex 1.51
#
DISCID=2f0dd114
DTITLE=Louis Armstrong - Louis Armstrong
DYEAR=2001
DGENRE=Jazz
TTITLE0=When the Saints Go Marching In
TTITLE1=It's Wonderful
TTITLE2=Save Pretty Mama
TTITLE3=Thanks a Million
TTITLE4=Sweet As a Song
TTITLE5=Naturally
TTITLE6=My Walkin' Stick
TTITLE7=Once in a While
TTITLE8=Hear Me Talkin' to Ya
TTITLE9=Mexican Swing
TTITLE10=Nobody Knows the Trouble I've Seen
TTITLE11=Red Sails in the Sunset
TTITLE12=Something Tells Me
TTITLE13=The Old Folks at Home
TTITLE14=Flat Foot Floogie
TTITLE15=I've Got a Pocketful of Dreams
TTITLE16=Lazy Bones
TTITLE17=Rockin' Chair
TTITLE18=So Little Time
TTITLE19=The Song Is Ended
EXTD=YEAR: 2001
EXTT0=
EXTT1=
EXTT2=
EXTT3=
EXTT4=
EXTT5=
EXTT6=
EXTT7=
EXTT8=
EXTT9=
EXTT10=
EXTT11=
EXTT12=
EXTT13=
EXTT14=
EXTT15=
EXTT16=
EXTT17=
EXTT18=
EXTT19=
PLAYORDER=
